<?xml version="1.0" encoding="utf-8"?>
<svg xmlns="http://www.w3.org/2000/svg"
	xmlns:xlink="http://www.w3.org/1999/xlink"
	width="77px" height="70px" viewBox="0 0 77 70">
<path fillRule="evenodd" d="M 74.28 70C 74.28 70 2.72 70 2.72 70 1.26 70-0 68.83-0 67.39-0 67.39-0 7.63-0 7.63-0 6.13 1.19 4.96 2.72 4.96 2.72 4.96 16.65 4.96 16.65 4.96 16.65 4.96 16.65 2.67 16.65 2.67 16.65 1.17 17.84-0 19.37-0 20.89-0 22.09 1.17 22.09 2.67 22.09 2.67 22.09 4.96 22.09 4.96 22.09 4.96 55.38 4.96 55.38 4.96 55.38 4.96 55.38 2.67 55.38 2.67 55.38 1.17 56.57-0 58.1-0 59.62-0 60.82 1.17 60.82 2.67 60.82 2.67 60.82 4.96 60.82 4.96 60.82 4.96 74.28 4.96 74.28 4.96 75.81 4.96 77 6.13 77 7.63 77 7.63 77 67.33 77 67.33 77 68.83 75.81 70 74.28 70ZM 5.44 64.72C 5.44 64.72 71.56 64.72 71.56 64.72 71.56 64.72 71.56 22.57 71.56 22.57 71.56 22.57 5.44 22.57 5.44 22.57 5.44 22.57 5.44 64.72 5.44 64.72ZM 71.63 10.31C 71.63 10.31 60.82 10.31 60.82 10.31 60.82 10.31 60.82 11.74 60.82 11.74 60.82 13.24 59.62 14.42 58.1 14.42 56.57 14.42 55.38 13.24 55.38 11.74 55.38 11.74 55.38 10.31 55.38 10.31 55.38 10.31 22.09 10.31 22.09 10.31 22.09 10.31 22.09 11.74 22.09 11.74 22.09 13.24 20.89 14.42 19.37 14.42 17.84 14.42 16.65 13.24 16.65 11.74 16.65 11.74 16.65 10.31 16.65 10.31 16.65 10.31 5.44 10.31 5.44 10.31 5.44 10.31 5.44 17.22 5.44 17.22 5.44 17.22 71.63 17.22 71.63 17.22 71.63 17.22 71.63 10.31 71.63 10.31ZM 38.09 35.35C 38.09 35.35 32.6 38.68 32.6 38.68 32.6 38.68 30.56 35.54 30.56 35.54 30.56 35.54 38.56 30.64 38.56 30.64 38.56 30.64 42.69 30.64 42.69 30.64 42.69 30.64 42.69 55.24 42.69 55.24 42.69 55.24 38.09 55.24 38.09 55.24 38.09 55.24 38.09 35.35 38.09 35.35Z" fill="rgb(255,255,255)"/></svg>