<?xml version="1.0" encoding="utf-8"?>
<svg xmlns="http://www.w3.org/2000/svg"
	xmlns:xlink="http://www.w3.org/1999/xlink"
	width="57px" height="73px" viewBox="0 0 57 73">
<path fillRule="evenodd" d="M 57 43.51C 57 39.88 54.49 36.82 51.12 35.98 51.6 34.97 51.87 33.84 51.87 32.65 51.87 28.37 48.4 24.89 44.13 24.89 44.13 24.89 28.83 24.89 28.83 24.89 32.17 19.83 33.97 13.9 33.97 7.76 33.97 3.48 30.49-0 26.23-0 21.96-0 18.48 3.48 18.48 7.76 18.48 13.44 15.3 18.71 10.18 21.51 3.9 24.96-0 31.7-0 39.12-0 39.12-0 52.67-0 52.67-0 63.88 9.1 73 20.28 73 20.28 73 38.51 73 38.51 73 42.78 73 46.25 69.52 46.25 65.24 46.25 64.09 46 62.99 45.55 62.01 49.14 61.34 51.87 58.17 51.87 54.38 51.87 53.19 51.6 52.06 51.12 51.05 54.49 50.21 57 47.15 57 43.51ZM 49.26 46.62C 49.26 46.62 38.51 46.62 38.51 46.62 38.51 46.62 38.51 51.27 38.51 51.27 38.51 51.27 44.13 51.27 44.13 51.27 45.83 51.27 47.22 52.67 47.22 54.38 47.22 56.09 45.83 57.48 44.13 57.48 44.13 57.48 38.51 57.48 38.51 57.48 38.51 57.48 38.51 62.14 38.51 62.14 40.22 62.14 41.61 63.53 41.61 65.24 41.61 66.95 40.22 68.34 38.51 68.34 38.51 68.34 20.28 68.34 20.28 68.34 11.66 68.34 4.64 61.31 4.64 52.67 4.64 52.67 4.64 39.12 4.64 39.12 4.64 33.41 7.62 28.22 12.41 25.6 19.02 21.98 23.13 15.14 23.13 7.76 23.13 6.05 24.52 4.66 26.23 4.66 27.93 4.66 29.32 6.05 29.32 7.76 29.32 14.32 26.89 20.63 22.49 25.5 22.49 25.5 21.88 26.17 21.88 26.17 21.88 26.17 21.88 29.55 21.88 29.55 21.88 29.55 44.13 29.55 44.13 29.55 45.83 29.55 47.22 30.94 47.22 32.65 47.22 34.36 45.83 35.75 44.13 35.75 44.13 35.75 38.51 35.75 38.51 35.75 38.51 35.75 38.51 40.41 38.51 40.41 38.51 40.41 49.26 40.41 49.26 40.41 50.97 40.41 52.35 41.8 52.35 43.51 52.35 45.22 50.97 46.62 49.26 46.62Z" fill="rgb(255,255,255)"/></svg>