<?xml version="1.0" encoding="utf-8"?>
<svg xmlns="http://www.w3.org/2000/svg"
	xmlns:xlink="http://www.w3.org/1999/xlink"
	width="50px" height="50px" viewBox="0 0 50 50">
<path fillRule="evenodd" d="M 49.99 44.93C 49.99 48.23 48.23 49.99 44.95 49.99 31.62 50 18.29 50 4.96 49.99 1.77 49.99 0 48.21-0 44.99-0.01 31.66-0.01 18.33-0 5.01-0 1.82 1.8 0.01 4.97 0.01 11.63-0 18.3 0.01 24.96 0.01 31.63 0.01 38.29 0 44.96 0.01 48.21 0.01 49.99 1.81 49.99 5.09 50 18.37 50 31.65 49.99 44.93ZM 45.44 4.52C 31.75 4.52 18.16 4.52 4.5 4.52 4.5 18.18 4.5 31.77 4.5 45.46 18.23 45.46 31.85 45.46 45.44 45.46 45.44 31.74 45.44 18.12 45.44 4.52ZM 22.13 12.27C 24.05 12.27 25.83 12.27 27.8 12.27 27.8 15.51 27.8 18.76 27.8 22.19 31.26 22.19 34.45 22.19 37.72 22.19 37.72 24.06 37.72 25.83 37.72 27.8 34.49 27.8 31.24 27.8 27.85 27.8 27.85 31.2 27.85 34.42 27.85 37.73 25.94 37.73 24.16 37.73 22.19 37.73 22.19 34.49 22.19 31.24 22.19 27.86 18.79 27.86 15.58 27.86 12.26 27.86 12.26 25.94 12.26 24.17 12.26 22.2 15.5 22.2 18.75 22.2 22.13 22.2 22.13 18.8 22.13 15.58 22.13 12.27Z" fill="rgb(171,173,177)"/></svg>