<?xml version="1.0" encoding="utf-8"?>
<svg xmlns="http://www.w3.org/2000/svg"
	xmlns:xlink="http://www.w3.org/1999/xlink"
	width="77px" height="77px" viewBox="0 0 77 77">
<path fillRule="evenodd" d="M 76.98 63.6C 76.97 65.36 75.72 66.61 73.98 66.73 73.73 66.74 73.49 66.75 73.2 66.77 73.2 69.3 73.2 71.78 73.2 74.43 73.92 74.43 74.65 74.42 75.38 74.44 76.41 74.46 77.05 74.97 76.97 75.76 76.87 76.67 76.26 77.01 75.4 77 75.19 77 74.97 77 74.76 77 50.59 77 26.43 77 2.27 77 0.65 77-0.01 76.61 0.03 75.67 0.06 74.78 0.68 74.43 2.25 74.43 2.74 74.43 3.23 74.43 3.79 74.43 3.79 71.85 3.79 69.34 3.79 66.76 3.49 66.75 3.22 66.74 2.94 66.72 1.29 66.6 0.05 65.41 0.03 63.75-0.01 59.72-0.01 55.69 0.03 51.66 0.05 50.1 1.09 49.25 2.58 48.72 2.58 47.37 2.59 45.99 2.57 44.61 2.56 43.08 3.14 41.96 4.58 41.26 4.88 41.12 5.12 40.5 5.12 40.1 5.15 32.97 5.14 25.84 5.14 18.71 5.14 13.11 5.14 7.52 5.14 1.92 5.14 0.33 5.49-0 7.1-0 10.16-0 13.23-0.01 16.29-0 17.53 0 17.97 0.41 17.99 1.66 18.03 3.19 18 4.71 18 6.37 20.16 6.37 22.19 6.37 24.39 6.37 24.39 5.26 24.38 4.14 24.39 3.02 24.4 1.7 24.81 1.28 26.1 1.28 35.22 1.28 44.34 1.28 53.47 1.28 54.75 1.28 55.17 1.71 55.18 3.02 55.19 4.12 55.18 5.21 55.18 6.36 57.34 6.36 59.39 6.36 61.62 6.36 61.62 4.85 61.62 3.33 61.62 1.82 61.62 0.35 61.97 0 63.44-0 65.18-0 66.93-0 68.68-0 70.2-0 70.57 0.37 70.57 1.87 70.58 11.5 70.58 21.12 70.58 30.75 70.58 33.78 70.58 36.81 70.58 39.84 70.58 40.22 70.58 40.6 70.58 40.97 73.59 41.33 74.43 42.28 74.43 45.21 74.43 45.71 74.43 46.21 74.43 46.71 74.42 47.81 74.18 48.88 75.72 49.41 76.66 49.73 76.99 50.88 76.99 51.95 77 55.83 77.01 59.72 76.98 63.6ZM 65.5 74.38C 67.18 74.38 68.8 74.38 70.5 74.38 70.5 71.8 70.5 69.29 70.5 66.82 68.78 66.82 67.13 66.82 65.5 66.82 65.5 69.38 65.5 71.86 65.5 74.38ZM 14.18 74.39C 30.4 74.39 46.56 74.39 62.8 74.39 62.8 71.8 62.8 69.29 62.8 66.81 46.54 66.81 30.35 66.81 14.18 66.81 14.18 69.38 14.18 71.86 14.18 74.39ZM 6.48 74.38C 8.16 74.38 9.78 74.38 11.48 74.38 11.48 71.8 11.48 69.29 11.48 66.82 9.76 66.82 8.11 66.82 6.48 66.82 6.48 69.38 6.48 71.86 6.48 74.38ZM 15.34 2.65C 12.81 2.65 10.34 2.65 7.8 2.65 7.8 15.49 7.8 28.21 7.8 40.98 10.33 40.98 12.81 40.98 15.34 40.98 15.34 28.18 15.34 15.45 15.34 2.65ZM 24.3 9.02C 22.2 9.02 20.18 9.02 18.06 9.02 18.06 9.9 18.06 10.66 18.06 11.47 20.19 11.47 22.26 11.47 24.3 11.47 24.3 10.6 24.3 9.81 24.3 9.02ZM 52.53 3.9C 43.98 3.9 35.51 3.9 27 3.9 27 9.86 27 15.76 27 21.74 35.58 21.74 44.07 21.74 52.53 21.74 52.53 15.73 52.53 9.81 52.53 3.9ZM 50.42 29.48C 50.97 27.81 51.52 26.15 52.08 24.46 43.82 24.46 35.7 24.46 27.48 24.46 28.06 26.2 28.61 27.84 29.16 29.48 36.27 29.48 43.31 29.48 50.42 29.48ZM 34.73 32.15C 34.73 33.01 34.73 33.8 34.73 34.56 38.17 34.56 41.53 34.56 44.9 34.56 44.9 33.73 44.9 32.99 44.9 32.15 41.44 32.15 38.08 32.15 34.73 32.15ZM 61.51 9.03C 59.38 9.03 57.33 9.03 55.25 9.03 55.25 9.88 55.25 10.67 55.25 11.5 57.36 11.5 59.4 11.5 61.51 11.5 61.51 10.61 61.51 9.81 61.51 9.03ZM 61.55 14.18C 59.41 14.18 57.33 14.18 55.18 14.18 55.18 17.03 55.19 19.8 55.18 22.58 55.18 22.96 55.17 23.37 55.05 23.73 54.28 26.1 53.45 28.44 52.69 30.82 52.4 31.76 51.84 32.12 50.88 32.09 49.79 32.05 48.69 32.08 47.48 32.08 47.48 33.35 47.49 34.46 47.48 35.56 47.47 36.78 47.02 37.21 45.79 37.21 41.79 37.22 37.8 37.22 33.81 37.21 32.51 37.21 32.1 36.8 32.09 35.49 32.08 34.37 32.09 33.24 32.09 32.08 30.82 32.08 29.72 32.05 28.62 32.09 27.7 32.12 27.17 31.75 26.89 30.85 26.24 28.78 25.48 26.75 24.85 24.67 24.58 23.77 24.43 22.81 24.41 21.87 24.35 19.32 24.39 16.76 24.39 14.2 22.2 14.2 20.13 14.2 18.07 14.2 18.07 23.19 18.07 32.08 18.07 40.98 32.62 40.98 47.1 40.98 61.55 40.98 61.55 31.99 61.55 23.1 61.55 14.18ZM 65.48 2.56C 64.39 2.52 64.12 2.83 64.12 3.91 64.16 15.84 64.15 27.77 64.15 39.71 64.15 40.09 64.15 40.48 64.15 40.87 64.38 40.97 64.45 41.01 64.51 41.02 65.22 41.03 65.93 41.03 66.65 41.04 68.04 41.04 68.04 41.04 68.04 39.67 68.04 28.16 68.04 16.65 68.04 5.15 68.04 2.59 68.04 2.65 65.48 2.56ZM 71.86 45.2C 71.86 43.63 71.86 43.63 70.34 43.63 52.74 43.63 35.14 43.63 17.54 43.63 13.8 43.63 10.06 43.63 6.32 43.63 5.78 43.63 5.17 43.57 5.16 44.36 5.13 45.81 5.15 47.25 5.15 48.73 27.43 48.73 49.58 48.73 71.86 48.73 71.86 47.47 71.86 46.34 71.86 45.2ZM 74.43 52.82C 74.43 51.33 74.43 51.33 72.98 51.33 61.51 51.33 50.04 51.33 38.57 51.33 27 51.33 15.42 51.34 3.84 51.31 2.88 51.31 2.54 51.55 2.55 52.57 2.61 56.02 2.6 59.48 2.56 62.94 2.55 63.84 2.78 64.18 3.75 64.18 26.9 64.16 50.06 64.16 73.21 64.18 74.13 64.18 74.46 63.93 74.45 62.97 74.4 59.59 74.43 56.2 74.43 52.82ZM 64.25 61.59C 62.14 61.64 60.34 59.9 60.32 57.78 60.3 55.66 62.05 53.89 64.18 53.9 66.26 53.91 67.99 55.63 68.01 57.71 68.03 59.78 66.32 61.55 64.25 61.59ZM 64.12 56.49C 63.33 56.52 62.86 57.03 62.9 57.82 62.94 58.55 63.42 59.01 64.15 59.01 64.95 59.01 65.35 58.49 65.46 57.73 65.33 56.97 64.91 56.45 64.12 56.49ZM 53.95 61.59C 51.82 61.62 50.05 59.87 50.05 57.74 50.06 55.62 51.83 53.87 53.96 53.9 56.03 53.93 57.75 55.67 57.74 57.75 57.74 59.82 56.02 61.57 53.95 61.59ZM 53.82 56.49C 53.05 56.54 52.58 57.05 52.64 57.85 52.69 58.58 53.19 59.03 53.92 59.01 54.71 58.99 55.11 58.47 55.19 57.7 55.04 56.94 54.62 56.43 53.82 56.49ZM 43.68 61.59C 41.6 61.62 39.84 59.92 39.79 57.85 39.74 55.72 41.46 53.93 43.59 53.9 45.71 53.88 47.48 55.63 47.48 57.75 47.48 59.83 45.75 61.57 43.68 61.59ZM 43.63 56.48C 42.89 56.48 42.42 56.94 42.37 57.67 42.33 58.47 42.81 58.97 43.58 59.01 44.38 59.05 44.79 58.53 44.93 57.77 44.82 57 44.43 56.49 43.63 56.48ZM 33.42 61.59C 31.3 61.62 29.52 59.87 29.52 57.75 29.53 55.62 31.3 53.87 33.42 53.9 35.5 53.93 37.21 55.67 37.22 57.75 37.22 59.82 35.49 61.57 33.42 61.59ZM 33.31 56.49C 32.53 56.53 32.06 57.04 32.11 57.83 32.15 58.56 32.64 59.02 33.38 59.01 34.17 59 34.57 58.48 34.67 57.66 34.5 56.97 34.11 56.44 33.31 56.49ZM 23.07 61.59C 20.96 61.58 19.21 59.78 19.26 57.66 19.3 55.58 21.05 53.89 23.13 53.9 25.25 53.92 26.99 55.71 26.95 57.83 26.91 59.9 25.15 61.61 23.07 61.59ZM 23.01 56.44C 22.34 56.61 21.81 56.98 21.84 57.8 21.87 58.54 22.35 59 23.07 59.01 23.86 59.02 24.36 58.54 24.37 57.75 24.37 56.96 23.85 56.56 23.01 56.44ZM 12.84 61.59C 10.72 61.59 8.97 59.82 9 57.69 9.02 55.57 10.82 53.84 12.95 53.9 15.02 53.96 16.71 55.72 16.69 57.8 16.66 59.87 14.91 61.59 12.84 61.59ZM 12.83 56.49C 12.09 56.48 11.62 56.95 11.58 57.68 11.53 58.48 12.05 58.89 12.79 59.04 13.57 58.95 14.09 58.56 14.1 57.76 14.11 56.98 13.62 56.49 12.83 56.49Z" fill="rgb(255,255,255)"/></svg>