<?xml version="1.0" encoding="utf-8"?>
<svg xmlns="http://www.w3.org/2000/svg"
	xmlns:xlink="http://www.w3.org/1999/xlink"
	width="72px" height="72px" viewBox="0 0 72 72">
<path fillRule="evenodd" d="M 70.39 42.27C 70.39 42.27 66.81 43.14 66.81 43.14 66.02 46.56 64.69 49.79 62.83 52.76 62.83 52.76 64.66 55.8 64.66 55.8 65.15 56.63 65.02 57.69 64.34 58.37 64.34 58.37 58.37 64.34 58.37 64.34 57.69 65.02 56.63 65.15 55.8 64.66 55.8 64.66 52.76 62.83 52.76 62.83 49.79 64.69 46.56 66.02 43.14 66.81 43.14 66.81 42.27 70.39 42.27 70.39 42.04 71.33 41.19 72 40.22 72 40.22 72 31.78 72 31.78 72 30.81 72 29.96 71.33 29.73 70.39 29.73 70.39 28.86 66.81 28.86 66.81 25.44 66.02 22.21 64.69 19.24 62.83 19.24 62.83 16.2 64.66 16.2 64.66 15.37 65.15 14.31 65.02 13.63 64.34 13.63 64.34 7.66 58.37 7.66 58.37 6.98 57.69 6.85 56.63 7.34 55.8 7.34 55.8 9.17 52.76 9.17 52.76 7.31 49.79 5.98 46.56 5.19 43.14 5.19 43.14 1.61 42.27 1.61 42.27 0.67 42.04-0 41.19-0 40.22-0 40.22-0 31.78-0 31.78-0 30.81 0.67 29.96 1.61 29.73 1.61 29.73 5.19 28.86 5.19 28.86 5.98 25.44 7.31 22.21 9.17 19.24 9.17 19.24 7.34 16.2 7.34 16.2 6.85 15.37 6.98 14.31 7.66 13.63 7.66 13.63 13.63 7.66 13.63 7.66 14.31 6.98 15.37 6.85 16.2 7.34 16.2 7.34 19.24 9.17 19.24 9.17 22.21 7.31 25.44 5.98 28.86 5.19 28.86 5.19 29.73 1.61 29.73 1.61 29.96 0.67 30.81-0 31.78-0 31.78-0 40.22-0 40.22-0 41.19-0 42.04 0.67 42.27 1.61 42.27 1.61 43.14 5.19 43.14 5.19 46.56 5.98 49.79 7.31 52.76 9.17 52.76 9.17 55.8 7.34 55.8 7.34 56.63 6.85 57.69 6.98 58.37 7.66 58.37 7.66 64.34 13.63 64.34 13.63 65.02 14.31 65.15 15.37 64.66 16.2 64.66 16.2 62.83 19.24 62.83 19.24 64.69 22.21 66.02 25.43 66.81 28.86 66.81 28.86 70.39 29.73 70.39 29.73 71.33 29.96 72 30.81 72 31.78 72 31.78 72 40.22 72 40.22 72 41.19 71.33 42.04 70.39 42.27ZM 67.78 33.44C 67.78 33.44 64.52 32.65 64.52 32.65 63.71 32.45 63.09 31.8 62.94 30.98 62.24 27.18 60.78 23.65 58.6 20.49 58.14 19.81 58.11 18.92 58.53 18.21 58.53 18.21 60.19 15.44 60.19 15.44 60.19 15.44 56.55 11.81 56.55 11.81 56.55 11.81 53.79 13.47 53.79 13.47 53.08 13.89 52.19 13.86 51.51 13.4 48.35 11.22 44.82 9.76 41.02 9.06 40.2 8.91 39.55 8.29 39.35 7.48 39.35 7.48 38.56 4.22 38.56 4.22 38.56 4.22 33.44 4.22 33.44 4.22 33.44 4.22 32.65 7.48 32.65 7.48 32.45 8.29 31.8 8.91 30.98 9.06 27.18 9.76 23.65 11.22 20.49 13.4 19.81 13.86 18.92 13.89 18.21 13.47 18.21 13.47 15.45 11.81 15.45 11.81 15.45 11.81 11.81 15.45 11.81 15.45 11.81 15.45 13.47 18.21 13.47 18.21 13.89 18.92 13.86 19.81 13.4 20.49 11.22 23.65 9.76 27.18 9.06 30.98 8.91 31.8 8.29 32.45 7.48 32.65 7.48 32.65 4.22 33.44 4.22 33.44 4.22 33.44 4.22 38.56 4.22 38.56 4.22 38.56 7.48 39.35 7.48 39.35 8.29 39.55 8.91 40.2 9.06 41.02 9.76 44.82 11.22 48.35 13.4 51.51 13.86 52.19 13.89 53.08 13.47 53.79 13.47 53.79 11.81 56.55 11.81 56.55 11.81 56.55 15.45 60.19 15.45 60.19 15.45 60.19 18.21 58.53 18.21 58.53 18.92 58.11 19.81 58.14 20.49 58.6 23.65 60.78 27.18 62.24 30.98 62.94 31.8 63.09 32.45 63.71 32.65 64.52 32.65 64.52 33.44 67.78 33.44 67.78 33.44 67.78 38.56 67.78 38.56 67.78 38.56 67.78 39.35 64.52 39.35 64.52 39.55 63.71 40.2 63.09 41.02 62.94 44.82 62.24 48.35 60.78 51.51 58.6 52.19 58.14 53.08 58.11 53.79 58.53 53.79 58.53 56.55 60.19 56.55 60.19 56.55 60.19 60.19 56.55 60.19 56.55 60.19 56.55 58.53 53.79 58.53 53.79 58.11 53.08 58.14 52.19 58.6 51.51 60.78 48.35 62.24 44.82 62.94 41.02 63.09 40.2 63.71 39.55 64.52 39.35 64.52 39.35 67.78 38.56 67.78 38.56 67.78 38.56 67.78 33.44 67.78 33.44ZM 36 59.2C 23.21 59.2 12.8 48.79 12.8 36 12.8 23.21 23.21 12.8 36 12.8 48.79 12.8 59.2 23.21 59.2 36 59.2 48.79 48.79 59.2 36 59.2ZM 36 17.02C 25.53 17.02 17.02 25.53 17.02 36 17.02 46.47 25.53 54.98 36 54.98 46.47 54.98 54.98 46.47 54.98 36 54.98 25.53 46.47 17.02 36 17.02ZM 35.38 45.93C 34.56 46.75 33.22 46.75 32.4 45.93 32.4 45.93 23.96 37.49 23.96 37.49 23.14 36.67 23.14 35.33 23.96 34.51 24.79 33.68 26.12 33.68 26.94 34.51 26.94 34.51 33.89 41.45 33.89 41.45 33.89 41.45 45.06 30.29 45.06 30.29 45.88 29.47 47.21 29.47 48.04 30.29 48.86 31.11 48.86 32.45 48.04 33.27 48.04 33.27 35.38 45.93 35.38 45.93Z" fill="rgb(255,255,255)"/></svg>