<?xml version="1.0" encoding="utf-8"?>
<svg xmlns="http://www.w3.org/2000/svg"
	xmlns:xlink="http://www.w3.org/1999/xlink"
	width="180px" height="97px" viewBox="0 0 180 97">
<path fillRule="evenodd" d="M 70.32 72.33C 64.19 77.98 55.92 81.29 47.07 80.85 28.93 79.94 15.29 64.97 16.17 46.93 17.02 29.37 32.19 15.53 49.64 16.39 59.8 16.88 68.63 21.86 74.28 29.25 74.28 29.25 80.57 22.96 80.57 22.96 80.23 22.71 79.89 22.4 79.53 22.06 76.82 19.49 76.12 16.94 77.87 13.68 78.07 13.3 78.11 12.83 78.33 11.97 78.03 11.52 77.72 10.68 77.11 10.2 75.79 9.17 74.24 8.42 72.93 7.37 71.18 5.94 69.68 6.17 68.34 7.78 66.14 10.42 63.64 11.28 60.53 9.39 60.24 9.22 59.74 9.34 59.51 9.13 58.68 8.39 57.46 7.69 57.2 6.76 55.34-0 56.94 1.14 49.59 0.63 49.41 0.62 49.23 0.63 49.06 0.6 46.91 0.12 45.77 1.03 45.18 3.11 44.73 4.7 44.35 6.9 43.2 7.58 41.39 8.66 38.97 8.99 36.8 9.01 35.81 9.02 34.81 7.52 33.8 6.72 32.72 5.87 31.36 4.13 30.58 4.36 28 5.12 25.37 6.28 23.3 7.95 22.51 8.58 22.88 11.12 23.29 12.64 23.89 14.85 23.46 16.38 21.53 17.59 20.94 17.95 20.36 18.45 19.97 19.01 18.91 20.53 17.61 20.52 16 20.03 9.85 18.16 11.34 17.76 7.73 23.11 7.63 23.26 7.57 23.44 7.44 23.56 5.39 25.59 5.85 27.52 7.87 29.16 10.4 31.2 10.89 33.49 9.21 36.28 8.98 36.65 9.08 37.24 8.82 37.53 8.07 38.37 7.33 39.53 6.37 39.79 0.01 41.54 0.84 39.96 0.38 47.25 0.37 47.43 0.39 47.61 0.35 47.78-0.15 50.03 0.71 51.43 2.98 51.79 6.53 52.36 8.4 54.32 8.4 57.97 8.4 58.4 8.79 58.86 8.72 59.25 8.55 60.11 8.45 61.16 7.9 61.73 3.55 66.23 3.52 66.2 6.33 71.79 6.41 71.95 6.51 72.11 6.56 72.27 7.17 74.15 8.46 74.67 10.29 74.19 11.06 73.99 11.9 74 12.63 73.72 14.74 72.91 16.17 73.66 17.3 75.46 17.67 76.05 18.19 76.58 18.74 77.01 20.15 78.1 20.22 79.35 19.72 80.98 18 86.69 17.36 85.57 22.69 89.12 22.84 89.22 23 89.3 23.13 89.42 25.18 91.43 27.14 91.35 28.94 89.11 30.87 86.7 33.11 86.05 35.86 87.69 36.16 87.86 36.53 87.96 36.87 88 38.61 88.18 39.34 89.1 39.74 90.85 41.15 97 39.99 96.16 46.48 96.56 46.93 96.59 47.38 96.56 47.81 96.65 49.89 97.07 51.12 96.17 51.42 94.17 51.99 90.35 54.2 88.54 58 88.5 58.25 88.5 58.53 88.26 58.76 88.31 59.71 88.54 60.91 88.55 61.55 89.14 66.1 93.35 66.07 93.39 71.58 90.64 71.66 90.6 71.74 90.55 71.82 90.53 73.95 89.87 74.56 88.43 73.85 86.4 72.74 83.25 73.03 80.57 76.24 78.77 76.35 78.72 76.44 78.62 76.53 78.53 76.53 78.53 70.32 72.33 70.32 72.33Z" fill="rgb(249,149,0)"/><path fillRule="evenodd" d="M 180 57.83C 180 57.83 180 59.25 180 59.25 180 59.25 169.7 59.25 169.7 59.25 169.7 59.25 169.7 57.83 169.7 57.83 169.7 57.83 172 57.83 172 57.83 172 57.83 172 48.89 172 48.89 171.43 49.08 170.73 49.25 169.91 49.39 169.08 49.53 168.21 49.6 167.32 49.6 166.23 49.6 165.2 49.47 164.25 49.21 163.29 48.95 162.42 48.5 161.64 47.86 160.62 47.03 159.86 45.59 159.35 43.52 158.84 41.45 158.59 39.3 158.59 37.08 158.59 37.08 156.57 37.08 156.57 37.08 156.57 37.08 156.57 35.66 156.57 35.66 156.57 35.66 166.58 35.66 166.58 35.66 166.58 35.66 166.58 37.08 166.58 37.08 166.58 37.08 164.32 37.08 164.32 37.08 164.32 37.51 164.32 38.12 164.32 38.92 164.32 39.73 164.32 40.32 164.32 40.7 164.32 41.48 164.36 42.26 164.43 43.04 164.5 43.82 164.76 44.56 165.21 45.27 165.66 45.98 166.33 46.61 167.22 47.17 168.11 47.73 169.04 48 170.01 48 170.7 48 171.36 47.85 172 47.54 172 47.54 172 37.08 172 37.08 172 37.08 169.91 37.08 169.91 37.08 169.91 37.08 169.91 35.66 169.91 35.66 169.91 35.66 180 35.66 180 35.66 180 35.66 180 37.08 180 37.08 180 37.08 177.2 37.08 177.2 37.08 177.2 37.08 177.2 57.83 177.2 57.83 177.2 57.83 180 57.83 180 57.83ZM 143.65 57.83C 143.65 57.83 145.95 57.83 145.95 57.83 145.95 57.83 145.95 42.96 145.95 42.96 145.95 42.96 138.52 52.02 138.52 52.02 138.52 52.02 138.52 57.83 138.52 57.83 138.52 57.83 140.86 57.83 140.86 57.83 140.86 57.83 140.86 59.25 140.86 59.25 140.86 59.25 130.52 59.25 130.52 59.25 130.52 59.25 130.52 57.83 130.52 57.83 130.52 57.83 133.32 57.83 133.32 57.83 133.32 57.83 133.32 37.08 133.32 37.08 133.32 37.08 130.52 37.08 130.52 37.08 130.52 37.08 130.52 35.66 130.52 35.66 130.52 35.66 140.86 35.66 140.86 35.66 140.86 35.66 140.86 37.08 140.86 37.08 140.86 37.08 138.52 37.08 138.52 37.08 138.52 37.08 138.52 49.78 138.52 49.78 138.52 49.78 145.95 40.66 145.95 40.66 145.95 40.66 145.95 37.08 145.95 37.08 145.95 37.08 143.65 37.08 143.65 37.08 143.65 37.08 143.65 35.66 143.65 35.66 143.65 35.66 153.95 35.66 153.95 35.66 153.95 35.66 153.95 37.08 153.95 37.08 153.95 37.08 151.15 37.08 151.15 37.08 151.15 37.08 151.15 57.83 151.15 57.83 151.15 57.83 153.95 57.83 153.95 57.83 153.95 57.83 153.95 59.25 153.95 59.25 153.95 59.25 143.65 59.25 143.65 59.25 143.65 59.25 143.65 57.83 143.65 57.83ZM 127.37 39.21C 127.18 39.68 127.03 40.18 126.91 40.7 126.79 41.22 126.73 41.7 126.73 42.15 126.73 42.62 126.71 42.93 126.66 43.07 126.52 43.48 126.23 43.68 125.78 43.68 125.38 43.68 125.07 43.35 124.86 42.69 124.79 42.5 124.62 41.9 124.36 40.89 123.94 39.29 123.42 38.22 122.81 37.68 122.38 37.3 121.73 37.12 120.86 37.12 120.86 37.12 120.22 37.12 120.22 37.12 120.22 37.12 118.77 37.12 118.77 37.12 118.77 37.12 118.77 57.83 118.77 57.83 118.77 57.83 121.6 57.83 121.6 57.83 121.6 57.83 121.6 59.25 121.6 59.25 121.6 59.25 110.81 59.25 110.81 59.25 110.81 59.25 110.81 57.83 110.81 57.83 110.81 57.83 113.57 57.83 113.57 57.83 113.57 57.83 113.57 37.12 113.57 37.12 113.57 37.12 112.15 37.12 112.15 37.12 110.81 37.12 109.96 37.27 109.61 37.57 108.94 38.14 108.31 39.61 107.69 41.98 107.55 42.6 107.47 42.92 107.45 42.97 107.28 43.44 107 43.68 106.6 43.68 106.17 43.68 105.9 43.54 105.78 43.27 105.66 43 105.61 42.62 105.61 42.15 105.61 41.21 105.41 40.22 105 39.21 104.91 38.92 104.69 38.39 104.33 37.61 104.1 37.09 103.98 36.71 103.98 36.48 103.98 36.15 104.11 35.85 104.37 35.59 104.63 35.33 104.99 35.2 105.46 35.2 106.08 35.32 106.76 35.43 107.5 35.54 108.24 35.64 109.07 35.7 109.99 35.7 109.99 35.7 111.2 35.7 111.2 35.7 111.2 35.7 121.18 35.7 121.18 35.7 121.18 35.7 122.38 35.7 122.38 35.7 123.42 35.7 124.27 35.64 124.93 35.54 125.59 35.43 126.25 35.32 126.91 35.2 127.38 35.2 127.74 35.34 127.99 35.61 128.24 35.88 128.36 36.17 128.36 36.48 128.36 36.74 128.22 37.21 127.92 37.9 127.63 38.58 127.44 39.02 127.37 39.21ZM 92.87 57.83C 92.87 57.83 95.41 57.83 95.41 57.83 95.41 57.83 92.9 49.1 92.9 49.1 92.33 51.7 91.38 54.02 90.03 56.07 88.43 58.49 86.73 59.71 84.94 59.71 83.85 59.71 82.98 59.4 82.32 58.79 81.54 58.06 81.15 57.01 81.15 55.63 81.15 53.84 81.66 51.82 82.67 49.58 83.45 47.88 84.67 45.77 86.32 43.24 87 42.23 87.69 41.21 88.37 40.2 88.98 39.16 89.29 38.21 89.29 37.36 89.29 37.2 89.27 36.95 89.22 36.62 89.22 36.62 86.64 36.62 86.64 36.62 86.64 36.62 86.64 35.2 86.64 35.2 86.64 35.2 97.08 35.2 97.08 35.2 97.08 35.2 97.08 36.62 97.08 36.62 97.08 36.62 94.46 36.62 94.46 36.62 94.46 36.62 100.62 57.83 100.62 57.83 100.62 57.83 102.95 57.83 102.95 57.83 102.95 57.83 102.95 59.25 102.95 59.25 102.95 59.25 92.87 59.25 92.87 59.25 92.87 59.25 92.87 57.83 92.87 57.83ZM 90.39 40.56C 89.63 41.59 88.88 42.62 88.12 43.63 87.49 44.53 86.98 45.33 86.6 46.04 86.13 46.89 85.63 48.05 85.12 49.51 84.53 51.18 84.23 52.44 84.23 53.29 84.23 54.03 84.41 54.58 84.76 54.96 85.12 55.33 85.55 55.52 86.07 55.52 86.71 55.52 87.23 55.28 87.63 54.78 88.38 53.81 89.17 52.62 90 51.21 91.13 49.27 91.77 47.75 91.91 46.64 91.91 46.64 90.39 40.56 90.39 40.56ZM 69.58 57.83C 69.58 57.83 71.77 57.83 71.77 57.83 70.97 55.39 70.23 52.65 69.54 49.6 69.19 48.02 68.79 46.01 68.34 43.57 68.34 43.57 67.77 40.77 67.77 40.77 67.42 41.17 67.1 41.6 66.82 42.06 66.53 42.52 66.22 43.1 65.86 43.78 64.94 45.44 64.28 46.94 63.88 48.3 63.48 49.66 63.28 50.86 63.28 51.9 63.28 53.39 63.35 54.32 63.49 54.7 63.63 55.08 63.85 55.27 64.13 55.27 64.46 55.27 64.68 55.38 64.8 55.62 65.01 56.07 65.12 57.11 65.12 58.74 65.12 59.1 64.99 59.33 64.73 59.43 64.47 59.54 64.2 59.59 63.92 59.59 63.73 59.59 63.51 59.58 63.28 59.54 63.04 59.51 62.85 59.48 62.71 59.46 62.57 59.44 62.4 59.42 62.2 59.42 62 59.42 61.85 59.42 61.76 59.42 61.33 59.42 61 59.45 60.77 59.51 60.53 59.56 60.33 59.59 60.16 59.59 59.83 59.59 59.56 59.51 59.33 59.34 59.11 59.18 58.97 58.86 58.93 58.38 58.93 58.38 58.93 57.17 58.93 57.17 58.93 55.92 59.13 54.68 59.53 53.46 59.93 52.24 60.78 50.36 62.08 47.82 62.08 47.82 64.31 43.52 64.31 43.52 65.11 42.02 65.57 41.15 65.69 40.89 66.35 39.49 66.68 38.5 66.68 37.93 66.68 37.55 66.59 37.32 66.41 37.22 66.23 37.13 65.94 37.08 65.54 37.08 65.54 37.08 63.24 37.08 63.24 37.08 63.24 37.08 63.24 35.66 63.24 35.66 63.24 35.66 74.32 35.66 74.32 35.66 74.32 35.66 74.32 37.08 74.32 37.08 74.32 37.08 72.27 37.08 72.27 37.08 72.67 39.99 73.25 43.13 74 46.51 74.66 49.45 75.45 52.45 76.37 55.52 76.47 55.83 76.58 56.23 76.71 56.71 76.84 57.2 76.94 57.57 77.01 57.83 77.01 57.83 79.45 57.83 79.45 57.83 79.45 57.83 79.45 59.25 79.45 59.25 79.45 59.25 69.58 59.25 69.58 59.25 69.58 59.25 69.58 57.83 69.58 57.83ZM 50.7 47.9C 50.99 47.99 51.26 48.07 51.49 48.15 52.81 48.55 53.82 49.03 54.5 49.6 55.7 50.62 56.31 52.01 56.31 53.78 56.31 55.72 55.65 57.29 54.34 58.48 53.03 59.68 51.46 60.28 49.62 60.28 49 60.28 48.38 60.2 47.74 60.06 46.63 59.85 45.58 59.6 44.57 59.3 43.57 59 42.95 58.86 42.72 58.86 42.34 58.86 42.02 59.03 41.76 59.37 41.5 59.71 41.37 60.24 41.37 60.95 41.37 61.14 41.39 61.36 41.44 61.62 41.49 61.88 41.51 62.06 41.51 62.16 41.51 62.46 41.41 62.62 41.19 62.62 41.19 62.62 40.42 62.62 40.42 62.62 40.2 62.57 39.97 62.53 39.73 62.51 39.48 62.49 39.3 62.47 39.18 62.47 38.82 62.47 38.48 62.57 38.15 62.75 37.94 62.87 37.78 62.93 37.69 62.93 37.43 62.93 37.21 62.76 37.02 62.43 36.83 62.1 36.74 61.5 36.74 60.62 36.74 59.35 37.07 58.33 37.75 57.56 38.42 56.79 39.23 56.41 40.18 56.41 40.7 56.41 41.37 56.56 42.2 56.85 43.03 57.15 43.87 57.44 44.74 57.72 45.6 58.01 46.24 58.18 46.67 58.25 47.1 58.32 47.45 58.36 47.73 58.36 48.8 58.36 49.54 57.84 49.97 56.8 50.28 56.07 50.43 55.06 50.43 53.78 50.43 53.57 50.43 53.35 50.43 53.11 50.43 52.88 50.43 52.63 50.43 52.37 50.43 52.18 50.42 52.02 50.4 51.91 50.3 50.77 49.9 49.91 49.19 49.33 48.49 48.75 47.59 48.47 46.5 48.47 46.5 48.47 43.57 48.47 43.57 48.47 43.57 48.47 43.49 46.51 43.49 46.51 46.02 46.51 47.67 46.22 48.45 45.64 49.23 45.07 49.62 43.96 49.62 42.33 49.62 42.33 49.62 41.23 49.62 41.23 49.62 39.91 49.46 38.89 49.16 38.18 48.71 37.14 47.88 36.62 46.68 36.62 45.78 36.62 45.05 36.84 44.49 37.29 43.71 37.91 43.32 38.9 43.32 40.27 43.32 40.58 43.33 40.83 43.35 41.03 43.38 41.24 43.4 41.42 43.42 41.58 43.42 41.84 43.27 41.97 42.96 41.97 42.96 41.97 42.36 41.97 42.36 41.97 41.61 41.97 40.99 41.99 40.52 42.03 40.05 42.06 39.24 42.18 38.08 42.36 37.87 42.41 37.74 42.41 37.69 42.36 37.64 42.32 37.62 42.09 37.62 41.69 37.62 39.23 38.8 37.45 41.16 36.33 42.79 35.58 44.7 35.2 46.89 35.2 49.32 35.2 51.37 35.75 53.03 36.85 54.7 37.95 55.53 39.44 55.53 41.34 55.53 43.11 54.8 44.5 53.33 45.52 52.63 46.02 51.48 46.5 49.9 46.98 49.9 46.98 49.58 47.08 49.58 47.08 49.58 47.08 49.58 47.68 49.58 47.68 50.03 47.73 50.4 47.8 50.7 47.9Z" fill="rgb(54,54,54)"/></svg>